HIERARCHY
ROOT Hips
{
  OFFSET 0.849866 78.6569 -0.536788
  CHANNELS 6 Xposition Yposition Zposition Zrotation Xrotation Yrotation
  JOINT Bip01_Pelvis
  {
    OFFSET 0 0 0
    CHANNELS 6 Xposition Yposition Zposition Zrotation Xrotation Yrotation
    JOINT BN_Tail_01
    {
      OFFSET -5.52397 -0.332285 0
      CHANNELS 6 Xposition Yposition Zposition Zrotation Xrotation Yrotation
      JOINT BN_Tail_02
      {
        OFFSET 6.48885 -2.032e-005 0
        CHANNELS 6 Xposition Yposition Zposition Zrotation Xrotation Yrotation
        JOINT BN_Tail_03
        {
          OFFSET 7.08759 1.016e-005 -0.00261112
          CHANNELS 6 Xposition Yposition Zposition Zrotation Xrotation Yrotation
          End Site
          {
            OFFSET 0 0 0
          }
        }
      }
    }
    JOINT Bip01_Spine
    {
      OFFSET 4.02227 0.398968 0
      CHANNELS 6 Xposition Yposition Zposition Zrotation Xrotation Yrotation
      JOINT BN_UpperArm_R_01
      {
        OFFSET 4.84413 -3.22857 -3.65581
        CHANNELS 6 Xposition Yposition Zposition Zrotation Xrotation Yrotation
        JOINT BN_Forearm_R_01
        {
          OFFSET 8.51614 0 0
          CHANNELS 6 Xposition Yposition Zposition Zrotation Xrotation Yrotation
          JOINT BN_hand_R_01
          {
            OFFSET 10.1924 0 0
            CHANNELS 6 Xposition Yposition Zposition Zrotation Xrotation Yrotation
            JOINT BN_Finger_R_02
            {
              OFFSET 14.5949 -1.43855 0.585079
              CHANNELS 6 Xposition Yposition Zposition Zrotation Xrotation Yrotation
              End Site
              {
                OFFSET 0 0 0
              }
            }
            JOINT BN_Finger_R_01
            {
              OFFSET 14.4623 0 0
              CHANNELS 6 Xposition Yposition Zposition Zrotation Xrotation Yrotation
              End Site
              {
                OFFSET 0 0 0
              }
            }
          }
        }
      }
      JOINT BN_UpperArm_L_01
      {
        OFFSET 4.84412 -3.22858 3.65557
        CHANNELS 6 Xposition Yposition Zposition Zrotation Xrotation Yrotation
        JOINT BN_Forearm_L_01
        {
          OFFSET 8.51611 0 0
          CHANNELS 6 Xposition Yposition Zposition Zrotation Xrotation Yrotation
          JOINT BN_hand_L_01
          {
            OFFSET 10.1924 0 0
            CHANNELS 6 Xposition Yposition Zposition Zrotation Xrotation Yrotation
            JOINT BN_Finger_L_01
            {
              OFFSET 14.4623 0 0
              CHANNELS 6 Xposition Yposition Zposition Zrotation Xrotation Yrotation
              End Site
              {
                OFFSET 0 0 0
              }
            }
            JOINT BN_Finger_L_02
            {
              OFFSET 14.5949 1.43855 0.585071
              CHANNELS 6 Xposition Yposition Zposition Zrotation Xrotation Yrotation
              End Site
              {
                OFFSET 0 0 0
              }
            }
          }
        }
      }
      JOINT Bip01_R_Thigh
      {
        OFFSET -4.03411 -0.254132 -3.45377
        CHANNELS 6 Xposition Yposition Zposition Zrotation Xrotation Yrotation
        JOINT Bip01_R_Calf
        {
          OFFSET 3.92618 0 0
          CHANNELS 6 Xposition Yposition Zposition Zrotation Xrotation Yrotation
          JOINT Bip01_R_HorseLink
          {
            OFFSET 6.12319 0 0
            CHANNELS 6 Xposition Yposition Zposition Zrotation Xrotation Yrotation
            JOINT Bip01_R_Foot
            {
              OFFSET 9.94776 0 0
              CHANNELS 6 Xposition Yposition Zposition Zrotation Xrotation Yrotation
              JOINT Bip01_R_Toe3
              {
                OFFSET 0.881252 -0.110953 0.0158496
                CHANNELS 6 Xposition Yposition Zposition Zrotation Xrotation Yrotation
                JOINT Bip01_R_Toe31
                {
                  OFFSET 2.32137 0 0
                  CHANNELS 6 Xposition Yposition Zposition Zrotation Xrotation Yrotation
                  JOINT Bip01_R_Toe32
                  {
                    OFFSET 1.63293 0 0
                    CHANNELS 6 Xposition Yposition Zposition Zrotation Xrotation Yrotation
                    JOINT Bip01_R_Toe3Nub
                    {
                      OFFSET 1.72131 0 0
                      CHANNELS 6 Xposition Yposition Zposition Zrotation Xrotation Yrotation
                      End Site
                      {
                        OFFSET 0 0 0
                      }
                    }
                  }
                }
              }
              JOINT Bip01_R_Toe2
              {
                OFFSET 0.994751 0.967285 -1.09428
                CHANNELS 6 Xposition Yposition Zposition Zrotation Xrotation Yrotation
                JOINT Bip01_R_Toe21
                {
                  OFFSET 2.20201 0 0
                  CHANNELS 6 Xposition Yposition Zposition Zrotation Xrotation Yrotation
                  JOINT Bip01_R_Toe22
                  {
                    OFFSET 1.84925 0 0
                    CHANNELS 6 Xposition Yposition Zposition Zrotation Xrotation Yrotation
                    JOINT Bip01_R_Toe2Nub
                    {
                      OFFSET 1.70976 0 0
                      CHANNELS 6 Xposition Yposition Zposition Zrotation Xrotation Yrotation
                      End Site
                      {
                        OFFSET 0 0 0
                      }
                    }
                  }
                }
              }
              JOINT Bip01_R_Toe1
              {
                OFFSET 1.3748 1.34027 -0.0712419
                CHANNELS 6 Xposition Yposition Zposition Zrotation Xrotation Yrotation
                JOINT Bip01_R_Toe11
                {
                  OFFSET 2.26122 0 0
                  CHANNELS 6 Xposition Yposition Zposition Zrotation Xrotation Yrotation
                  JOINT Bip01_R_Toe12
                  {
                    OFFSET 2.22215 0 0
                    CHANNELS 6 Xposition Yposition Zposition Zrotation Xrotation Yrotation
                    JOINT Bip01_R_Toe1Nub
                    {
                      OFFSET 1.61867 0 0
                      CHANNELS 6 Xposition Yposition Zposition Zrotation Xrotation Yrotation
                      End Site
                      {
                        OFFSET 0 0 0
                      }
                    }
                  }
                }
              }
              JOINT Bip01_R_Toe0
              {
                OFFSET 1.40695 0.687986 0.883783
                CHANNELS 6 Xposition Yposition Zposition Zrotation Xrotation Yrotation
                JOINT Bip01_R_Toe01
                {
                  OFFSET 2.26828 0 0
                  CHANNELS 6 Xposition Yposition Zposition Zrotation Xrotation Yrotation
                  JOINT Bip01_R_Toe02
                  {
                    OFFSET 2.09769 0 0
                    CHANNELS 6 Xposition Yposition Zposition Zrotation Xrotation Yrotation
                    JOINT Bip01_R_Toe0Nub
                    {
                      OFFSET 1.53753 0 0
                      CHANNELS 6 Xposition Yposition Zposition Zrotation Xrotation Yrotation
                      End Site
                      {
                        OFFSET 0 0 0
                      }
                    }
                  }
                }
              }
            }
          }
        }
      }
      JOINT Bip01_L_Thigh
      {
        OFFSET -4.03411 -0.254147 3.45377
        CHANNELS 6 Xposition Yposition Zposition Zrotation Xrotation Yrotation
        JOINT Bip01_L_Calf
        {
          OFFSET 3.92616 0 0
          CHANNELS 6 Xposition Yposition Zposition Zrotation Xrotation Yrotation
          JOINT Bip01_L_HorseLink
          {
            OFFSET 6.1232 0 0
            CHANNELS 6 Xposition Yposition Zposition Zrotation Xrotation Yrotation
            JOINT Bip01_L_Foot
            {
              OFFSET 9.94775 0 0
              CHANNELS 6 Xposition Yposition Zposition Zrotation Xrotation Yrotation
              JOINT Bip01_L_Toe3
              {
                OFFSET 0.881246 -0.110986 -0.0157582
                CHANNELS 6 Xposition Yposition Zposition Zrotation Xrotation Yrotation
                JOINT Bip01_L_Toe31
                {
                  OFFSET 2.32136 0 0
                  CHANNELS 6 Xposition Yposition Zposition Zrotation Xrotation Yrotation
                  JOINT Bip01_L_Toe32
                  {
                    OFFSET 1.63293 0 0
                    CHANNELS 6 Xposition Yposition Zposition Zrotation Xrotation Yrotation
                    JOINT Bip01_L_Toe3Nub
                    {
                      OFFSET 1.7213 0 0
                      CHANNELS 6 Xposition Yposition Zposition Zrotation Xrotation Yrotation
                      End Site
                      {
                        OFFSET 0 0 0
                      }
                    }
                  }
                }
              }
              JOINT Bip01_L_Toe2
              {
                OFFSET 0.994649 0.967162 1.09447
                CHANNELS 6 Xposition Yposition Zposition Zrotation Xrotation Yrotation
                JOINT Bip01_L_Toe21
                {
                  OFFSET 2.202 0 0
                  CHANNELS 6 Xposition Yposition Zposition Zrotation Xrotation Yrotation
                  JOINT Bip01_L_Toe22
                  {
                    OFFSET 1.84926 0 0
                    CHANNELS 6 Xposition Yposition Zposition Zrotation Xrotation Yrotation
                    JOINT Bip01_L_Toe2Nub
                    {
                      OFFSET 1.70976 0 0
                      CHANNELS 6 Xposition Yposition Zposition Zrotation Xrotation Yrotation
                      End Site
                      {
                        OFFSET 0 0 0
                      }
                    }
                  }
                }
              }
              JOINT Bip01_L_Toe1
              {
                OFFSET 1.37483 1.34021 0.0715086
                CHANNELS 6 Xposition Yposition Zposition Zrotation Xrotation Yrotation
                JOINT Bip01_L_Toe11
                {
                  OFFSET 2.26124 0 0
                  CHANNELS 6 Xposition Yposition Zposition Zrotation Xrotation Yrotation
                  JOINT Bip01_L_Toe12
                  {
                    OFFSET 2.22214 0 0
                    CHANNELS 6 Xposition Yposition Zposition Zrotation Xrotation Yrotation
                    JOINT Bip01_L_Toe1Nub
                    {
                      OFFSET 1.61867 0 0
                      CHANNELS 6 Xposition Yposition Zposition Zrotation Xrotation Yrotation
                      End Site
                      {
                        OFFSET 0 0 0
                      }
                    }
                  }
                }
              }
              JOINT Bip01_L_Toe0
              {
                OFFSET 1.40707 0.688009 -0.883564
                CHANNELS 6 Xposition Yposition Zposition Zrotation Xrotation Yrotation
                JOINT Bip01_L_Toe01
                {
                  OFFSET 2.26828 0 0
                  CHANNELS 6 Xposition Yposition Zposition Zrotation Xrotation Yrotation
                  JOINT Bip01_L_Toe02
                  {
                    OFFSET 2.0977 0 0
                    CHANNELS 6 Xposition Yposition Zposition Zrotation Xrotation Yrotation
                    JOINT Bip01_L_Toe0Nub
                    {
                      OFFSET 1.53752 0 0
                      CHANNELS 6 Xposition Yposition Zposition Zrotation Xrotation Yrotation
                      End Site
                      {
                        OFFSET 0 0 0
                      }
                    }
                  }
                }
              }
            }
          }
        }
      }
      JOINT Bip01_Spine1
      {
        OFFSET 4.90674 -0.00437896 0
        CHANNELS 6 Xposition Yposition Zposition Zrotation Xrotation Yrotation
        JOINT Bip01_Neck
        {
          OFFSET 5.56447 -1.28357 0
          CHANNELS 6 Xposition Yposition Zposition Zrotation Xrotation Yrotation
          JOINT Bip01_Neck1
          {
            OFFSET 2.79308 -0.00219964 0
            CHANNELS 6 Xposition Yposition Zposition Zrotation Xrotation Yrotation
            JOINT Bip01_Head
            {
              OFFSET 2.79272 0 0
              CHANNELS 6 Xposition Yposition Zposition Zrotation Xrotation Yrotation
              JOINT BN_Mouth_01
              {
                OFFSET 4.19089 0.0665938 0
                CHANNELS 6 Xposition Yposition Zposition Zrotation Xrotation Yrotation
                End Site
                {
                  OFFSET 0 0 0
                }
              }
              JOINT Bip01_HeadNub
              {
                OFFSET 6.95118 0 0
                CHANNELS 6 Xposition Yposition Zposition Zrotation Xrotation Yrotation
                End Site
                {
                  OFFSET 0 0 0
                }
              }
            }
          }
        }
      }
    }
  }
}
MOTION
Frames:	3
Frame Time:	0.0333333
0.849866 14.3265 -4.60853e-009 105.291 -90 -172.068 0 0 0 -89.9988 6.18131 -89.9989 -5.52397 -0.33228 2.91038e-011 -11.1843 -2.62569 179.973 6.48885 -9.53675e-007 3.33067e-016 -10.2979 4.99207e-008 2.18673e-008 7.08759 -9.53675e-007 -0.00170946 -17.4907 1.3689e-007 3.9303e-008 4.02139 0.398892 -1.25767e-017 -0.877586 -0.0201976 1.31832 4.47644 -4.1544 -0.36784 -63.5335 -63.56 79.4802 8.51612 4.4409e-016 3.55271e-015 122.431 77.1089 23.4535 10.1924 1.90735e-006 9.53673e-007 -117.111 -10.2393 13.7683 14.5949 -1.43855 0.58508 -22.2666 0.454358 3.91207 14.4623 3.55273e-015 8.88177e-016 -52.0725 7.10515 1.51725 4.85599 -3.27139 0.772031 119.404 -62.5081 -101.251 8.51612 3.99681e-015 1.90735e-006 -142.165 -70.4685 7.5748 10.1924 3.55272e-015 -9.53673e-007 126.015 12.5525 18.0227 14.4623 1.24345e-014 8.88177e-016 31.3466 0.344518 8.074 14.5949 1.4385 0.585104 2.54634 -4.15909 11.9651 -3.93535 -0.457718 -3.5446 -105.469 4.0652 -173.97 3.92617 4.76838e-007 0 -74.4751 -4.25934e-006 -1.6711e-005 6.1232 -1.77636e-015 -4.44089e-016 105.162 4.94448e-006 1.68775e-005 9.94775 -4.7684e-007 -1.33227e-015 -59.3919 18.5424 -3.34359 0.881236 -0.110956 0.0158345 110.21 -3.28659 176.752 2.32136 1.19211e-007 -8.19564e-008 46.4406 1.99563e-006 9.67484e-007 1.63292 -4.88507e-015 4.47035e-008 -54.5976 -3.42175e-006 1.30865e-005 1.72129 8.88199e-015 1.49012e-008 1.02626e-006 1.00594e-005 1.26876e-006 0.994722 0.967274 -1.09431 71.6797 -11.0426 25.3265 2.202 -2.38422e-007 2.38419e-007 37.0436 3.6505e-007 2.37623e-007 1.84924 2.38423e-007 4.44089e-016 -30.305 -1.94886e-005 2.16574e-007 1.70976 -5.32918e-015 -2.38419e-007 7.25562e-008 1.01798e-005 1.04605e-006 1.37479 1.34027 -0.0712851 79.6945 0.482234 -2.64825 2.26123 -4.88505e-015 2.01166e-007 24.1835 9.94027e-006 -4.7177e-006 2.22213 4.88506e-015 7.45058e-008 -43.5071 -3.1712e-006 1.16801e-005 1.61867 -4.76846e-007 3.7998e-007 -9.76231e-006 1.69425e-006 9.92739e-006 1.40695 0.687995 0.883748 81.4308 5.2948 -42.4962 2.26827 1.11024e-015 0 29.1653 2.48013e-007 9.46963e-006 2.09769 -2.38423e-007 1.77636e-015 -55.023 -1.99719e-005 5.82336e-006 1.53752 -1.7764e-015 -7.10542e-015 -1.02518e-005 9.76681e-006 2.20883e-006 -4.0933 -0.4603 3.36065 -52.5319 -2.95144 177.92 3.92617 -2.66454e-015 -8.88178e-016 -35.6169 -5.69062e-006 8.15595e-006 6.1232 0 1.33227e-015 113.122 -9.41409e-006 2.27103e-005 9.94776 -8.88183e-016 8.88178e-016 -51.0611 -16.3007 3.17981 0.88124 -0.110943 -0.0157733 110.805 3.24622 -176.86 2.32136 -2.14425e-012 -0.000858545 54.452 0.0208108 0.0404112 1.63293 2.98053e-008 0.000795126 -61.5302 -2.13876e-006 -3.66388e-006 1.72129 2.2205e-015 8.88178e-016 179.967 -0.0210444 -0.00148826 0.994617 0.967139 1.09452 74.9865 9.48059 -25.9179 2.20201 5.10708e-015 2.38418e-007 40.0483 -0.00328859 0.00120846 1.84925 -1.19211e-007 -2.38418e-007 -72.6455 -3.02821e-006 -2.57072e-007 1.70976 -4.76848e-007 -2.38418e-007 179.961 0.00717483 0.000269363 1.37477 1.34028 0.0715771 72.3141 -0.819738 2.5656 2.26123 4.66299e-015 -1.19209e-007 31.1828 5.4149e-006 8.54178e-006 2.22213 -3.77481e-015 -4.76837e-007 -38.5073 -1.50351e-005 -1.0887e-005 1.61867 3.10868e-015 1.19209e-007 -179.96 -0.000122127 0.00135478 1.40702 0.688129 -0.883536 79.3748 -6.5441 31.2861 2.26828 1.19211e-007 2.38418e-007 26.1651 1.97012e-006 1.14962e-005 2.0977 -8.65986e-015 -1.19209e-007 -61.0262 4.22414e-006 -1.64412e-005 1.53753 8.88198e-015 2.98023e-007 179.961 -0.00346148 0.00168047 4.90559 -0.00427532 -0.00031242 -14.1669 4.24297 -0.369502 5.56288 -1.28305 6.80247e-010 -41.903 -0.432851 -1.92651 2.79232 -0.00218201 3.35274e-008 -14.4994 0.0682231 -0.995879 2.79273 9.53675e-007 -2.98023e-008 110.115 -3.03771 1.96594 4.19088 0.0665913 1.6469e-012 -175.224 0.0329285 179.995 6.95116 3.8147e-006 4.44089e-016 -1.26503e-007 -1.62792e-008 2.86843e-008 
0.849866 14.3212 -4.71008e-009 97.3919 -90 -180 0 0 0 -89.9988 6.18131 -89.9989 -5.52397 -0.33228 2.91037e-011 -11.1899 -2.62576 179.973 6.48885 -9.53675e-007 5.55111e-016 -10.3886 4.9793e-008 2.19636e-008 7.08759 -9.53675e-007 -0.00170946 -17.611 1.3689e-007 3.96616e-008 4.02139 0.398892 1.0056e-016 -0.891573 -0.020465 1.31482 4.47644 -4.1544 -0.36784 -63.5335 -63.56 79.4802 8.51612 8.8818e-016 -1.06581e-014 122.43 77.1088 23.4542 10.1924 1.90735e-006 9.53673e-007 -117.1 -10.2366 13.7703 14.5949 -1.43855 0.58508 -22.3329 0.437303 3.8982 14.4623 3.55273e-015 0 -52.1252 7.09639 1.50938 4.85599 -3.27139 0.772031 119.404 -62.5081 -101.251 8.51612 5.77317e-015 1.90735e-006 -142.165 -70.4685 7.5748 10.1924 3.55272e-015 -9.53673e-007 126.015 12.5525 18.0227 14.4623 1.77636e-015 -1.77635e-015 31.3807 0.362728 8.07275 14.5949 1.4385 0.585104 2.58074 -4.15146 11.9798 -3.9357 -0.4583 -3.5442 -105.405 4.06592 -173.972 3.92617 4.76838e-007 -8.88179e-016 -74.4751 -1.37568e-005 -1.40722e-005 6.1232 -2.66454e-015 8.88179e-016 105.214 4.95994e-006 1.68734e-005 9.94775 -4.7684e-007 -1.33227e-015 -59.4236 18.5494 -3.33638 0.881236 -0.110956 0.0158345 110.21 -3.2866 176.752 2.32136 1.19211e-007 -8.19564e-008 46.4406 1.96345e-006 9.3761e-007 1.63292 -2.66458e-015 4.47035e-008 -54.5976 -3.42152e-006 1.30863e-005 1.72129 5.7733e-015 1.49012e-008 1.02626e-006 1.00594e-005 1.26876e-006 0.994722 0.967274 -1.09431 71.6797 -11.0426 25.3265 2.202 -2.38422e-007 2.38419e-007 37.0436 3.65666e-007 2.37579e-007 1.84924 2.38423e-007 0 -30.305 -1.94891e-005 2.16292e-007 1.70976 -6.66147e-015 -2.38419e-007 7.25562e-008 1.01798e-005 1.04605e-006 1.37479 1.34027 -0.0712851 79.6945 0.482234 -2.64825 2.26123 1.11024e-015 2.01166e-007 24.1835 9.94016e-006 -4.71804e-006 2.22213 -6.21735e-015 7.45058e-008 -43.5071 3.35358e-006 4.8073e-006 1.61867 -4.76846e-007 3.7998e-007 -9.76229e-006 1.69425e-006 9.92739e-006 1.40695 0.687995 0.883748 81.4308 5.2948 -42.4962 2.26827 -5.32915e-015 -8.88178e-016 29.1653 1.03899e-007 9.20126e-006 2.09769 -2.38423e-007 3.55271e-015 -55.023 -1.35754e-005 1.34905e-006 1.53752 -1.7764e-015 -6.21724e-015 -1.02518e-005 9.76681e-006 2.20883e-006 -4.09272 -0.460856 3.36129 -52.4329 -2.95519 177.926 3.92617 8.8818e-016 0 -35.5631 -5.68272e-006 8.16137e-006 6.1232 1.77636e-015 4.44089e-016 113.149 -9.40338e-006 2.27147e-005 9.94776 5.77319e-015 0 -51.0965 -16.3026 3.16987 0.88124 -0.110943 -0.0157733 110.805 3.24624 -176.86 2.32136 -2.35531e-012 -0.000858545 54.452 0.0208108 0.0404112 1.63293 2.98056e-008 0.000795126 -61.5302 -2.52189e-006 -3.45682e-006 1.72129 -1.55435e-015 8.88178e-016 179.967 -0.0210444 -0.00148826 0.994617 0.967139 1.09452 74.9865 9.48059 -25.9179 2.20201 5.10708e-015 2.38418e-007 40.0483 -0.00328859 0.00120846 1.84925 -1.19211e-007 -2.38418e-007 -72.6455 -3.13913e-006 -2.20243e-007 1.70976 -4.76848e-007 -2.38418e-007 179.961 0.00717483 0.000269363 1.37477 1.34028 0.0715771 72.3141 -0.819738 2.5656 2.26123 5.10708e-015 -1.19209e-007 31.1828 5.41624e-006 8.54211e-006 2.22213 -6.66143e-016 -4.76837e-007 -38.5073 -1.50295e-005 -1.08962e-005 1.61867 0 1.19209e-007 -179.96 -0.000122127 0.00135478 1.40702 0.688129 -0.883536 79.3749 -6.54409 31.2861 2.26828 1.19211e-007 2.38418e-007 26.1651 1.97314e-006 1.14968e-005 2.0977 -8.65986e-015 -1.19209e-007 -61.0262 4.77225e-006 -1.67456e-005 1.53753 8.88198e-015 2.98023e-007 179.961 -0.00346148 0.00168047 4.90559 -0.00427532 -0.00031242 -14.1043 4.24135 -0.36935 5.56288 -1.28305 6.76497e-010 -41.7795 -0.439441 -1.92285 2.79232 -0.00218201 3.35275e-008 -14.4853 0.0679849 -0.995922 2.79273 9.53675e-007 -2.98023e-008 109.919 -3.1205 1.99482 4.19088 0.0665913 1.86895e-012 -175.382 0.0292511 179.995 6.95116 3.8147e-006 0 -1.26503e-007 -1.62792e-008 2.86845e-008 
0.849866 14.3159 -4.81268e-009 97.4248 -90 -180 0 0 0 -89.9988 6.18131 -89.9989 -5.52397 -0.33228 2.91038e-011 -11.2259 -2.62604 179.972 6.48885 -9.53675e-007 7.77156e-016 -10.4802 4.9633e-008 2.20596e-008 7.08759 -9.53675e-007 -0.00170946 -17.7395 1.36848e-007 4.00506e-008 4.02139 0.398892 -1.1872e-017 -0.905644 -0.0207313 1.31123 4.47644 -4.1544 -0.36784 -63.5335 -63.56 79.4802 8.51612 -2.22045e-016 3.55271e-015 122.431 77.109 23.4529 10.1924 1.90735e-006 9.53673e-007 -117.089 -10.2341 13.7721 14.5949 -1.43855 0.58508 -22.3998 0.420096 3.88418 14.4623 1.42109e-014 8.88177e-016 -52.1785 7.08757 1.50141 4.85599 -3.27139 0.772031 119.404 -62.5081 -101.251 8.51612 6.66135e-015 1.90735e-006 -142.165 -70.4685 7.5748 10.1924 3.55272e-015 -9.53673e-007 126.015 12.5525 18.0227 14.4623 3.55273e-015 -3.55271e-015 31.4151 0.381116 8.07148 14.5949 1.4385 0.585104 2.61547 -4.14373 11.9945 -3.93606 -0.458882 -3.54379 -105.34 4.06663 -173.973 3.92617 4.76838e-007 0 -74.4751 -1.37565e-005 -1.40717e-005 6.1232 3.55272e-015 -4.44089e-016 105.266 1.46399e-005 1.42316e-005 9.94775 -4.7684e-007 0 -59.4557 18.5564 -3.3291 0.881236 -0.110956 0.0158345 110.21 -3.28662 176.752 2.32136 1.19211e-007 -8.19564e-008 46.4406 1.52779e-006 5.24059e-007 1.63292 -6.21736e-015 4.47035e-008 -54.5976 -3.42129e-006 1.3086e-005 1.72129 7.32765e-015 1.49012e-008 -6.81266e-007 1.00594e-005 1.26876e-006 0.994722 0.967274 -1.09431 71.6797 -11.0426 25.3265 2.202 -2.38422e-007 2.38419e-007 37.0436 3.66292e-007 2.37535e-007 1.84924 2.38423e-007 2.66453e-015 -30.305 -1.94895e-005 2.16005e-007 1.70976 -1.11025e-014 -2.38419e-007 7.25562e-008 1.01798e-005 1.04605e-006 1.37479 1.34027 -0.0712851 79.6945 0.482234 -2.64825 2.26123 -5.55119e-015 2.01166e-007 24.1835 9.94004e-006 -4.71838e-006 2.22213 2.22048e-015 7.45058e-008 -43.5071 3.47853e-006 4.67684e-006 1.61867 -4.76846e-007 3.7998e-007 2.55523e-007 1.69425e-006 9.92739e-006 1.40695 0.687995 0.883748 81.4308 5.29478 -42.4962 2.26827 -3.33072e-015 -1.77636e-015 29.1653 2.85802e-007 9.51698e-006 2.09769 -2.38423e-007 3.55271e-015 -55.023 -1.34421e-005 1.25663e-006 1.53752 -8.88199e-016 -6.21724e-015 -1.02518e-005 9.76681e-006 2.20883e-006 -4.09213 -0.461418 3.36194 -52.3329 -2.95895 177.931 3.92617 8.8818e-016 -8.88178e-016 -35.5085 -5.6747e-006 8.16685e-006 6.1232 5.32908e-015 1.33227e-015 113.176 -9.39256e-006 2.2719e-005 9.94776 5.77319e-015 0 -51.1322 -16.3044 3.15985 0.88124 -0.110943 -0.0157733 110.805 3.24627 -176.859 2.32136 -2.5743e-012 -0.000858545 54.452 0.0208108 0.0404112 1.63293 2.98058e-008 0.000795126 -61.5302 -2.09726e-006 -3.68776e-006 1.72129 1.7764e-015 1.77636e-015 179.967 -0.0210444 -0.00148826 0.994617 0.967139 1.09452 74.9865 9.48059 -25.9179 2.20201 2.44252e-015 2.38418e-007 40.0483 -0.00328859 0.00120846 1.84925 -1.19211e-007 -2.38418e-007 -72.6455 -1.71463e-006 -6.63226e-007 1.70976 -4.76848e-007 -2.38418e-007 179.961 0.00717483 0.000269363 1.37477 1.34028 0.0715771 72.3141 -0.819738 2.5656 2.26123 -1.11024e-015 -1.19209e-007 31.1828 5.41759e-006 8.54245e-006 2.22213 -3.33071e-015 -4.76837e-007 -38.5073 -1.49435e-005 -1.10064e-005 1.61867 8.88194e-016 1.19209e-007 -179.96 -0.000122127 0.00135478 1.40702 0.688129 -0.883536 79.3748 -6.5441 31.2861 2.26828 1.19211e-007 2.38418e-007 26.1651 -2.41085e-006 2.56822e-006 2.0977 -3.10867e-015 -1.19209e-007 -61.0262 -3.54227e-006 -1.21427e-005 1.53753 7.99378e-015 2.98023e-007 179.961 -0.00346148 0.00168047 4.90559 -0.00427532 -0.00031242 -14.0408 4.23972 -0.36918 5.56288 -1.28305 6.72684e-010 -41.6549 -0.446076 -1.91913 2.79232 -0.00218201 3.35275e-008 -14.4627 0.0672722 -0.994705 2.79273 9.53675e-007 -2.98023e-008 109.688 -3.15542 2.02009 4.19088 0.0665913 1.95755e-012 -175.541 0.0255432 179.995 6.95116 3.8147e-006 4.44089e-016 -1.26503e-007 -1.62792e-008 2.86848e-008 
